<svg xmlns="http://www.w3.org/2000/svg" width="256" height="256" viewBox="0 0 100 100"><rect width="100" height="100" rx="20" fill="#322f38"></rect><path d="M10.70 54.07L10.70 66.61Q10.37 66.72 9.82 66.86Q9.27 67.00 8.61 67.00L8.61 67.00Q6.19 67.00 6.19 64.96L6.19 64.96L6.19 35.70Q6.19 34.82 6.63 34.35Q7.07 33.88 8.01 33.61L8.01 33.61Q9.60 33.12 11.94 32.89Q14.28 32.67 16.48 32.67L16.48 32.67Q23.41 32.67 26.79 35.45Q30.17 38.23 30.17 43.34L30.17 43.34Q30.17 47.14 28.22 49.72Q26.27 52.31 22.31 53.41L22.31 53.41Q23.68 55.17 25.06 56.93Q26.43 58.69 27.67 60.26Q28.91 61.82 29.87 63.09Q30.83 64.36 31.38 65.07L31.38 65.07Q31.16 66.00 30.42 66.55Q29.68 67.11 28.91 67.11L28.91 67.11Q27.97 67.11 27.37 66.66Q26.76 66.22 26.10 65.29L26.10 65.29L18.07 54.07L10.70 54.07ZM10.65 50.33L16.97 50.33Q21.04 50.33 23.35 48.57Q25.66 46.81 25.66 43.34L25.66 43.34Q25.66 39.88 23.24 38.15Q20.82 36.41 16.31 36.41L16.31 36.41Q14.83 36.41 13.31 36.55Q11.80 36.69 10.65 36.91L10.65 36.91L10.65 50.33ZM47.83 63.70L47.83 63.70Q51.51 63.70 53.41 62.02Q55.31 60.34 55.31 57.70L55.31 57.70Q55.31 55.39 53.85 53.96Q52.39 52.53 49.26 51.59L49.26 51.59L44.47 50.16Q40.95 49.12 38.94 47.08Q36.94 45.05 36.94 41.58L36.94 41.58Q36.94 39.49 37.73 37.82Q38.53 36.14 40.02 34.98Q41.50 33.83 43.56 33.20Q45.63 32.56 48.21 32.56L48.21 32.56Q50.41 32.56 52.31 32.92Q54.21 33.28 55.61 33.91Q57.01 34.55 57.78 35.31Q58.55 36.08 58.55 36.91L58.55 36.91Q58.55 37.68 58.17 38.23Q57.78 38.78 57.18 39.11L57.18 39.11Q55.75 38.01 53.46 37.19Q51.18 36.36 48.38 36.36L48.38 36.36Q45.13 36.36 43.29 37.73Q41.45 39.11 41.45 41.58L41.45 41.58Q41.45 43.51 42.77 44.72Q44.09 45.93 47.17 46.81L47.17 46.81L50.52 47.80Q54.87 49.06 57.37 51.35Q59.87 53.63 59.87 57.70L59.87 57.70Q59.87 62.05 56.74 64.74Q53.60 67.44 47.83 67.44L47.83 67.44Q45.30 67.44 43.23 67.00Q41.17 66.55 39.71 65.84Q38.26 65.13 37.46 64.27Q36.66 63.42 36.66 62.59L36.66 62.59Q36.66 61.66 37.24 61.03Q37.82 60.39 38.59 60.12L38.59 60.12Q39.19 60.73 40.07 61.36Q40.95 61.99 42.11 62.51Q43.26 63.03 44.69 63.37Q46.12 63.70 47.83 63.70ZM93.81 50.94L93.81 62.87Q93.81 63.86 93.23 64.52Q92.65 65.18 91.50 65.78L91.50 65.78Q90.12 66.44 87.70 66.94Q85.28 67.44 82.81 67.44L82.81 67.44Q78.96 67.44 75.77 66.39Q72.58 65.34 70.27 63.20Q67.96 61.05 66.69 57.78Q65.43 54.51 65.43 50.05L65.43 50.05Q65.43 45.66 66.75 42.36Q68.07 39.05 70.35 36.88Q72.63 34.71 75.66 33.64Q78.68 32.56 82.09 32.56L82.09 32.56Q84.40 32.56 86.35 32.95Q88.31 33.34 89.68 33.97Q91.06 34.60 91.83 35.37Q92.60 36.14 92.60 36.91L92.60 36.91Q92.60 37.68 92.16 38.23Q91.72 38.78 91.11 39.05L91.11 39.05Q89.63 38.06 87.59 37.21Q85.56 36.36 82.37 36.36L82.37 36.36Q79.73 36.36 77.47 37.24Q75.22 38.12 73.57 39.83Q71.92 41.53 70.98 44.11Q70.05 46.70 70.05 50.05L70.05 50.05Q70.05 53.63 71.01 56.19Q71.97 58.74 73.70 60.39Q75.44 62.05 77.77 62.84Q80.11 63.64 82.86 63.64L82.86 63.64Q84.84 63.64 86.60 63.31Q88.36 62.98 89.35 62.48L89.35 62.48L89.35 52.36L81.05 52.36Q80.88 52.09 80.72 51.62Q80.55 51.16 80.55 50.61L80.55 50.61Q80.55 49.67 80.99 49.15Q81.43 48.63 82.26 48.63L82.26 48.63L91.44 48.63Q92.43 48.63 93.12 49.26Q93.81 49.89 93.81 50.94L93.81 50.94Z" fill="#fff"></path></svg>